PathFileType	4	(X/Y/Z)	RBDS020\RBDS020runT45.trc
DataRate	CameraRate	NumFrames	NumMarkers	Units	OrigDataRate	OrigDataStartFrame	OrigNumFrames
150.000000	150.000000	4	33	mm	150.000000	1125	4500
Frame#	Time	L.ASIS			L.Heel.Bottom			L.Heel.Lateral			L.Heel.Top			L.Iliac.Crest			L.MT1			L.MT5			L.PSIS			L.Shank.Bottom.Lateral			L.Shank.Bottom.Medial			L.Shank.Top.Lateral			L.Shank.Top.Medial			L.Thigh.Bottom.Lateral			L.Thigh.Bottom.Medial			L.Thigh.Top.Lateral			L.Thigh.Top.Medial			R.ASIS			R.ASY			R.Heel.Bottom			R.Heel.Lateral			R.Heel.Top			R.Iliac.Crest			R.MT1			R.MT5			R.PSIS			R.Shank.Bottom.Lateral			R.Shank.Bottom.Medial			R.Shank.Top.Lateral			R.Shank.Top.Medial			R.Thigh.Bottom.Lateral			R.Thigh.Bottom.Medial			R.Thigh.Top.Lateral			R.Thigh.Top.Medial			
		X1	Y1	Z1	X2	Y2	Z2	X3	Y3	Z3	X4	Y4	Z4	X5	Y5	Z5	X6	Y6	Z6	X7	Y7	Z7	X8	Y8	Z8	X9	Y9	Z9	X10	Y10	Z10	X11	Y11	Z11	X12	Y12	Z12	X13	Y13	Z13	X14	Y14	Z14	X15	Y15	Z15	X16	Y16	Z16	X17	Y17	Z17	X18	Y18	Z18	X19	Y19	Z19	X20	Y20	Z20	X21	Y21	Z21	X22	Y22	Z22	X23	Y23	Z23	X24	Y24	Z24	X25	Y25	Z25	X26	Y26	Z26	X27	Y27	Z27	X28	Y28	Z28	X29	Y29	Z29	X30	Y30	Z30	X31	Y31	Z31	X32	Y32	Z32	X33	Y33	Z33	

1126	7.500000000000001	2354.282551683053	1026.125998798225	886.0737810894871	2391.016815338132	94.05919796197948	958.6562520716298	2412.390734149862	113.7726407038804	912.5332590738061	2401.410337257965	140.7040923724257	955.9759089041426	2299.755769221465	1080.06180024955	838.3010002312994	2611.067007699836	102.7136244541953	970.1845643683112	2567.127933856282	89.97362131662467	868.8018806626608	2202.47460174807	1073.061661213526	929.7529116881996	2470.572238823122	234.8794888586861	883.586350029546	2431.244736745666	243.3929517922371	921.6504760041229	2468.920948589043	313.6583891836076	865.6812146802882	2432.253856259968	322.5946233084896	903.6984592314944	2433.867560994432	722.6401159092725	819.9279231849936	2380.832504124007	683.7378900494525	851.0176436478139	2364.998515175681	806.4251902654199	806.8299518986153	2313.945392564871	769.4052279610636	835.9558473542021	2349.584590078402	997.7381432445743	1105.825906037377	1778.24234921861	154.3968917189389	1060.524115664954	1644.610391997907	298.788088142433	1045.171364001341	1666.763903602545	279.7799803407387	1090.732641574193	1685.571373680784	311.1068395208868	1050.525628364139	2322.352614560472	1060.744547687275	1124.697592634028	1758.528347712677	118.2019435072712	1009.212526324279	1727.111291559946	125.5512502524634	1114.14015171377	2201.911630121113	1073.244185509913	1027.428275789503	1802.244651332897	329.0448619654312	1113.118499646786	1777.194626937829	360.4926142256032	1081.0448808879	1859.945746146774	390.3091071043092	1125.128914904783	1829.121134100492	421.1057482069299	1094.406232081316	2096.576256127668	691.2695109680358	1133.185475118878	2054.335808193777	713.0483580457366	1080.106162756472	2134.923781561713	794.9382829900089	1141.540483827438	2097.430438214913	813.9248153755967	1087.993429350886	
1127	7.506666666666667	2354.329162184312	1026.345421063128	886.4367704734525	2420.34801132902	81.8369046235227	958.6591828430433	2440.111380598608	102.9320515711249	912.4167384054632	2426.860334005336	129.0499794520434	955.644830130123	2300.048853052213	1080.530406825305	838.7104105706048	2638.510127559704	108.2269456548084	970.2380767003996	2595.988191109834	91.52634731793879	868.7527968057595	2202.746375572736	1074.239136785711	930.2814211354348	2488.799492375947	229.1009449675313	883.0671422939458	2449.132694102771	235.0443864519982	921.2029834703386	2481.956514801681	307.5090370426289	865.0199482613554	2444.8199140252	314.0135355191246	903.0931767242943	2429.729406371051	719.4731447297221	818.7431992579374	2376.690463795678	681.8853197840499	851.3616191193063	2362.238744179307	804.4150756442134	806.1777363608448	2311.111578828664	768.6463111947468	836.7328205670601	2350.37302155431	998.4085817896685	1105.88923788152	1761.940121239213	168.508487205843	1061.119904314983	1634.909690014185	318.8947252200125	1044.500493168211	1656.137547329514	299.1539647778997	1090.246502397334	1676.493797369997	329.2819342594472	1049.783279975951	2322.43903740089	1062.194010967823	1125.043130368752	1740.59253911141	132.7318034780827	1010.109563981562	1709.437158012081	141.8730816912592	1114.754575198701	2202.501425459199	1074.835075960951	1028.068290285378	1793.543958579679	341.2200690824492	1112.836841097399	1769.87518772495	373.8797655200515	1080.995092210949	1853.803080408747	399.8176901867296	1124.990844093541	1824.406193768983	432.0128722894579	1094.441259092328	2098.570253466746	691.2961330212098	1133.611123811816	2055.806545797546	713.2917521990671	1081.093712197604	2136.89981118491	794.9078907258333	1142.387425394603	2098.700584745842	814.1933755572875	1089.487028748782	
1128	7.513333333333334	2354.085569763723	1026.441081996942	886.6255331446517	2447.519612353562	70.95197381635938	958.3324684463462	2465.701463880658	93.25893262290963	912.0098310659268	2450.211060468854	118.5003825802885	954.9926873871648	2299.851237261642	1080.692746022781	839.1052360911694	2662.787931587271	114.4938332200654	970.2523354388866	2622.038445707603	93.93869114404279	868.6325051205542	2202.599747610499	1074.716877346337	931.0797017280552	2504.983271854504	223.9635002072982	882.4067339747763	2465.099582975367	227.4314366417162	920.6073729189559	2493.284754974782	301.7434956658689	864.3346213754756	2455.761331015499	305.9049986613325	902.4323106567909	2425.131077999677	715.9199822818817	817.4044447986381	2372.139416082677	679.6986996340017	851.6065973251646	2359.079008506497	802.0447704449925	805.3974469018832	2307.942543573875	767.5775891930273	837.4492926031916	2351.113407584653	998.7358326702727	1105.93895579884	1746.930392238771	183.4649832294502	1061.524613439484	1626.523017852352	338.9557059188622	1043.164601375689	1646.788160003285	318.7436740564933	1089.157617142656	1668.568293098087	347.5191811074142	1048.376785033162	2322.265901177292	1063.226642498892	1125.491652515227	1724.081511774054	148.0918757912753	1010.872557797523	1693.233469875633	159.3396096023255	1115.251307714853	2202.804577641651	1075.597180476867	1028.990096983751	1786.022031801521	353.5951054572743	1112.17098735601	1763.972933132874	387.5066179137311	1080.529404535916	1848.942456765006	409.1599879947144	1124.599484910766	1821.221265889888	442.8328108992757	1094.178368782565	2101.817534528564	689.806982177003	1134.235567895041	2058.300757629072	711.8719827728537	1082.422445980588	2139.645697047712	793.5243147024277	1143.500450666734	2100.464217699378	812.9935982346175	1091.399118924284	
1129	7.52	2353.573723699538	1026.409356874123	886.6368161133111	2471.88456402112	61.36052515535949	957.7824919679032	2488.552953632971	84.70732281402294	911.4095408636896	2470.945576484018	109.048197360437	954.1375898504922	2299.163161868928	1080.556617518558	839.4794342355009	2683.573509918326	120.9655728411099	970.1682100714273	2644.783315714097	96.78053767562062	868.4215765967372	2202.093567409426	1074.49008860176	932.1322590754723	2518.809483062801	219.3458213543829	881.6653555644168	2478.83002958036	220.4880292883434	919.9467154434908	2502.673862966174	296.3220236147688	863.6775126769381	2464.859034345707	298.2827864108331	901.7944711685602	2420.227522382291	712.1145738006936	816.0527800663755	2367.312468991548	677.2742303405806	851.8063701874621	2355.641879924909	799.4178727479325	804.5783665122417	2304.552947484015	766.2718327790483	838.1240087878438	2351.819835043503	998.6965262478479	1105.972253882786	1733.421591930041	199.0104389924152	1061.75675404863	1619.822231719701	358.9314779601857	1041.178882015137	1639.079238686163	338.4820656938524	1087.473373446301	1662.193931838375	365.7346961686011	1046.345301918536	2321.920218819703	1063.796934603298	1126.017321805141	1709.166409846263	164.0406551268705	1011.500245604853	1678.690347070078	177.7362060199049	1115.602283494649	2202.869183194621	1075.493173857606	1030.176659686695	1779.905425804971	366.0548628870673	1111.156600064311	1759.698412841729	401.1846291131585	1079.644832776684	1845.497472444894	418.2746547442902	1123.970660012679	1819.684160274738	453.426083229124	1093.59956533154	2106.104506658293	686.9404496372516	1135.020708978758	2061.703394781838	708.8994218533794	1083.955268317664	2142.984729959875	790.9190725050629	1144.773032522823	2102.666580890125	810.4176927891818	1093.518928783747	
